<?xml version="1.0" encoding="UTF-8"?>
<svg id="Layer_2" data-name="Layer 2" xmlns="http://www.w3.org/2000/svg" viewBox="0 0 54.8 40.91">
  <defs>
    <style>
      .cls-1 {
        fill: #0c456b;
      }

      .cls-2 {
        fill: #ffce00;
      }

      .cls-3 {
        fill: #0f5a96;
      }

      .cls-4 {
        fill: #1579bc;
      }
    </style>
  </defs>
  <g id="Layer_1-2" data-name="Layer 1">
    <g>
      <g>
        <path class="cls-2" d="M48.24,28.94H4.74c-1.51,0-2.74,1.58-2.74,3.52v2.93c0,1.95,1.23,3.52,2.74,3.52h43.13"/>
        <path class="cls-1" d="M47.87,40.91H4.74c-2.61,0-4.74-2.48-4.74-5.52v-2.93c0-3.05,2.13-5.52,4.74-5.52h43.5c1.1,0,2,.9,2,2s-.9,2-2,2H4.74c-.21,0-.74.53-.74,1.52v2.93c0,.99.52,1.52.74,1.52h43.13c1.1,0,2,.9,2,2s-.9,2-2,2Z"/>
      </g>
      <g>
        <path class="cls-2" d="M6.56,15.08h43.5c1.51,0,2.74,1.58,2.74,3.52v2.93c0,1.95-1.23,3.52-2.74,3.52H6.94"/>
        <path class="cls-3" d="M50.06,27.06H6.93c-1.1,0-2-.9-2-2s.9-2,2-2h43.13c.21,0,.74-.53.74-1.52v-2.93c0-.99-.52-1.52-.74-1.52H6.56c-1.1,0-2-.9-2-2s.9-2,2-2h43.5c2.61,0,4.74,2.48,4.74,5.52v2.93c0,3.04-2.13,5.52-4.74,5.52Z"/>
      </g>
      <g>
        <path class="cls-2" d="M46.64,2H12.22c-1.2,0-2.17,1.58-2.17,3.52v2.93c0,1.95.97,3.52,2.17,3.52h34.12"/>
        <path class="cls-4" d="M46.34,13.98H12.22c-2.38,0-4.17-2.38-4.17-5.52v-2.93c0-3.15,1.79-5.52,4.17-5.52h34.42c1.1,0,2,.9,2,2s-.9,2-2,2H12.45c-.15.2-.39.73-.39,1.52v2.93c0,.8.24,1.32.39,1.52h33.89c1.1,0,2,.9,2,2s-.9,2-2,2Z"/>
      </g>
    </g>
  </g>
</svg>