<?xml version="1.0" encoding="UTF-8"?>
<svg id="Layer_2" data-name="Layer 2" xmlns="http://www.w3.org/2000/svg" viewBox="0 0 37.43 43.63">
  <defs>
    <style>
      .cls-1 {
        fill: #e2b700;
      }

      .cls-2 {
        fill: #0c456b;
      }

      .cls-3 {
        fill: #fff;
      }

      .cls-4 {
        fill: #ffce00;
      }
    </style>
  </defs>
  <g id="Layer_1-2" data-name="Layer 1">
    <g>
      <path class="cls-3" d="M13.53,9.94c-.83,0-1.5-.67-1.5-1.5C12.03,2.78,15.33.1,18.4,0c2.97-.08,6.32,2.24,6.66,7.57.05.83-.58,1.54-1.4,1.59-.87.05-1.54-.58-1.59-1.4-.21-3.29-1.94-4.76-3.5-4.76-.03,0-.05,0-.08,0-1.67.05-3.46,1.78-3.46,5.44,0,.83-.67,1.5-1.5,1.5Z"/>
      <path class="cls-2" d="M34.03,24.94c-1.1,0-2-.9-2-2,0-13.22-2.25-14.31-2.28-14.32h0c-.26,0-1,.59-1.35,1.04-.67.88-1.93,1.04-2.8.37-.88-.67-1.04-1.93-.37-2.8.27-.35,2.75-3.43,5.81-2.38,3.45,1.17,4.99,6.76,4.99,18.11,0,1.1-.9,2-2,2Z"/>
      <path class="cls-2" d="M4.87,28.97c-.94,0-1.78-.67-1.96-1.63C.39,14.05.94,7.19,4.69,5.1c3.41-1.9,7.25,1.47,7.68,1.86.81.75.87,2.01.12,2.83-.74.81-2.01.87-2.82.13-.84-.76-2.44-1.66-3.04-1.32-.12.07-2.86,1.81.2,18,.21,1.09-.51,2.13-1.59,2.34-.13.02-.25.04-.37.04Z"/>
      <path class="cls-1" d="M21.22,26.69c0,6.75-5.07,15.52-10.73,15.52S.89,39.75.2,32.96c-.42-4.15-.16-6.51.66-11.58l7.09-.16c6.01.02,13.27.79,13.27,5.46Z"/>
      <path class="cls-1" d="M16.21,26.69c0,6.75,5.07,15.52,10.73,15.52s9.6-2.46,10.29-9.25c.42-4.15.16-6.51-.66-11.58l-7.09-.16c-6.01.02-13.27.79-13.27,5.46Z"/>
      <path class="cls-4" d="M30.65,43.63c1.19,0,2.19-.89,2.32-2.07.38-3.39,1.08-7.1,1.08-13.71s-1.7-11.79-4.03-15.18c-2.34-3.39-5.42-6.74-11.47-6.74s-8.94,2.76-11.47,6.74c-2.53,3.98-4.03,9.17-4.03,15.18s.67,9.16,1.1,12.87c.19,1.66,1.6,2.91,3.27,2.91h23.23Z"/>
      <path class="cls-3" d="M30.14,34.05v-2.59c0-2.88-2.36-5.24-5.24-5.24h-12.07c-2.88,0-5.24,2.36-5.24,5.24v2.59h22.55Z"/>
      <path class="cls-3" d="M7.59,34.05v2.59c0,2.88,2.36,5.24,5.24,5.24h12.07c2.88,0,5.24-2.36,5.24-5.24v-2.59H7.59Z"/>
    </g>
  </g>
</svg>